<?xml version="1.0" encoding="utf-8"?>
<!-- Generator: Adobe Illustrator 22.1.0, SVG Export Plug-In . SVG Version: 6.00 Build 0)  -->
<svg version="1.1" id="Layer_1" xmlns="http://www.w3.org/2000/svg" xmlns:xlink="http://www.w3.org/1999/xlink" x="0px" y="0px"
	 width="160.1px" height="84.1px" viewBox="0 0 160.1 84.1" style="enable-background:new 0 0 160.1 84.1;" xml:space="preserve">
<style type="text/css">
	.st0{fill:#A62C32;}
	.st1{fill:#929497;}
	.st2{fill:#FFFFFF;}
</style>
<g>
	<polygon class="st0" points="0.6,58.2 150.8,58.2 150.8,59.5 0.6,59.5 0.6,58.2 	"/>
	<path class="st1" d="M108.4,27.8c0.3-2.2,2-4,4.2-4.3h0v-2.7l0.4-0.7l0.5-0.2l0.7,0.3l0.2,0.6l0,2.6c2,0.5,3.5,2.2,3.7,4.3l0,0v1.3
		l2.1,0.5l1.8,2.7h4.5l-0.2-11.8l-0.9-0.9l-0.5-0.2l-0.7-0.7l-0.7-0.5l-1.1-0.2l-0.4-0.9h-0.9l-0.4-0.2l-0.5,0.4H120l0.4-1.1
		l-0.4-0.9v-0.3l-0.2-0.2l-0.2-0.4h-0.5l-0.5-0.2v-0.4l-0.6,0.4l-0.7-0.2l-0.2,0.2l-0.9,0.5v0.7h-0.7l-0.6-2.7l-2-0.5l-0.2-0.4
		l0.2,0l-0.7-0.9l-0.8,0.9h0.2v0.5h-0.7l-0.5-0.7l-0.6,0.7l-0.9-1.1l-0.7,0.2l-0.4-0.4l-0.4,0.4l-0.5-0.7l-0.7,0.7l-0.3-0.2
		l-0.2-3.3l0.6-0.7V6h-1.3l-0.3,0.4L104.4,6h-1L103,6.4L102.6,6h-1.2v1.1l0.7,0.4h-8.3V5.1l0.4-0.7V3.3l-0.8,0.2h-0.3L92.3,0
		l-0.7,3.5h-0.2l-0.6-0.2l-0.2,0.9l-0.9-0.9l-0.9,0.9l-0.9-0.9l-1.1,0.9l-0.9-0.9l-1.1,0.9l-0.9-0.9l-1.1,1.1l-0.9-1.1l-1.1,0.9V3.1
		h-2.9l-2.5,1.6v2h-1.8l-0.7-4.2l-0.7,3.3h-4.5l-0.9,0.9h-4.3L63,6V4.9h-1.1l-0.3,0.4l-0.2-0.4h-0.9l-0.2,0.4l-0.5-0.5h-0.9V6
		l0.5,0.4l-0.2,2.7H57l-0.4-0.7h-0.7v4h-2.7l-2-1.6L50,12.2v0.9l-4.5,0.3l-0.9,2.9l-0.9-0.7l-0.9,1.1l-1.4-1.3l-1.3,1.8v0.6
		l-0.9-0.9l-0.9,1.1L38,18.2l-0.5-0.4l-0.2-0.9l-0.4-0.7l-0.4,0.3l-0.5,0l-1.1,0.2l0-0.9l-0.2-0.3l0.3-0.7l-1.1-1.7l-1.2,1.8
		l0.5,0.7l-0.2,0.3v0.9L24,16.9l-2.4,4.6h1.1l-0.2,3.8l-3.1,2.7l-0.1,1l-1.1,1.2v2l7.3-0.2v-1.8l3.4-2l5.8-0.2l0-2.3
		c0.1-2,1.5-3.7,3.5-4.1l0.1-1.2l0.6-0.5l0.6,0.5l0.1,1.1c2,0.3,3.5,2,3.6,4.1l0,2.7h7.4v0.3h2l0.2-3.6l0.7-0.2v-3.2l1.1-1.1
		l0.1-0.4l0.1,0.5l1.1,1.1l0.2,3.1l0.7,0.5l0.3,3.4l0.9-0.9l0.5-0.9h1.1l0.9-2l1.1-0.4v-2.9l1.1-0.9l0.1-0.7l0.1,0.7l1.1,0.9v3.3
		l0.4,0.7l0.4,0.2l0.2,2.5h9.9l1.8,1.5v1.8l2.2-0.5l2-3.2h4.3l0.9,0.7v-6.9h0.7l1.2-6l1.1,6h0.7v10.7h4v-1.4h0.2l0.2,0.5l0.5-0.2
		v-0.3h0.6l0.2,0.3l0.5-0.2h0.4v1.3h5.1v-1.3h0.7l0.2,0.4l0.4-0.4v-0.3l0.7,0.3l0.5,0.2l0.4-0.4h0.4v1.4h2l1.5-0.9L108.4,27.8
		L108.4,27.8z"/>
	<path class="st2" d="M1.4,46.7c0.9,2.2,2.2,4.7,5.8,4.7c2.9,0,5.2-1.4,5.2-4.1c0-6.2-12.3-4.7-12.3-13.1c0-4.9,3.8-7.6,8.4-7.6
		c2.3,0,5.5,1.1,6.1,2V33H13c-0.5-2.9-1.9-4.8-4.8-4.8c-2.4,0-4.4,1.3-4.4,3.9c0,6.1,12.3,4.3,12.3,13c0,5-4.3,7.8-9,7.8
		c-2.3,0-4.6-0.4-6.6-1.5c-0.1-1.6-0.4-3.2-0.5-4.8H1.4L1.4,46.7z"/>
	<path class="st2" d="M23,46.3c-0.1,0-0.2,0-0.3,0.1L21.9,49c-0.3,0.8-0.6,1.6-0.6,2c0,0.8,0.6,1,1.8,1c0.2,0,0.3,0.1,0.3,0.3v0.5
		c0,0.2-0.1,0.2-0.4,0.2c-0.8,0-1.6-0.1-2.6-0.1c-1.6,0-2.2,0.1-2.7,0.1c-0.1,0-0.2,0-0.2-0.2v-0.4c0-0.2,0.1-0.3,0.3-0.3
		c0.9,0,1.6-0.2,2-1.3c0.5-1.3,1-2.6,1.5-3.9l2.6-7.5c0.2-0.6,0.4-1.3,0.7-2.3c0.1-0.4,0.3-0.6,1.2-1.2c0.5-0.3,0.9-0.6,0.9-0.6
		c0.1,0,0.2,0.3,0.3,0.5l5.8,14.3c0.7,1.8,0.9,2,1.8,2.2c0.7,0.1,0.8,0.1,0.8,0.3v0.4c0,0.1,0,0.3-0.3,0.3c-0.7,0-2.1-0.1-3.2-0.1
		c-1.4,0-2.6,0.1-3.7,0.1c-0.1,0-0.2,0-0.2-0.1v-0.6c0-0.3,0.1-0.3,0.3-0.3c1.3,0,1.6-0.4,1.6-0.9c0-0.6-1.4-3.6-1.8-4.7H23L23,46.3
		z M27.4,45.1l-2.3-5.5h0l-1.8,5.5H27.4L27.4,45.1z"/>
	<path class="st2" d="M42.8,49.8c0,1.5,0.3,2.1,2.8,2.1c3,0,3.2-0.1,4.6-2.6c0.1-0.2,0.2-0.2,0.3-0.2c0.2,0,0.9,0.1,0.9,0.3
		c0,0.1-0.1,0.7-0.2,1.2c-0.2,0.9-0.5,1.7-0.7,2.5c-2.2,0-4.9-0.1-6.5-0.1c-1.6,0-4.7,0.1-6.5,0.1c-0.1,0-0.2,0-0.2-0.2v-0.5
		c0-0.2,0.1-0.3,0.3-0.3c1.7,0,2-0.4,2-2.5V39.3c0-1.9-0.5-2.5-2-2.5c-0.2,0-0.2-0.1-0.2-0.2v-0.5c0-0.1,0.1-0.2,0.3-0.2
		c0.4,0,1.8,0.1,4.2,0.1c1.1,0,2.1-0.1,3.2-0.1c0.1,0,0.2,0.1,0.2,0.2v0.5c0,0.1,0,0.3-0.2,0.3c-1.1,0-2,0.2-2,1.5V49.8L42.8,49.8z"
		/>
	<path class="st2" d="M62,38.8c0.4-0.7,1-1.4,1-1.6c0-0.1,0-0.2-0.2-0.2h-4.4c-1.5,0-2.5,0.1-3.2,1.1c-0.6,0.8-1,1.6-1.1,1.6
		c-0.2,0-0.7-0.3-0.9-0.5c0.5-1.5,0.9-3,1.2-4.4c0.3-0.1,0.5-0.1,0.8-0.1c0.2,0,0.4,0.3,0.6,0.6c0.2,0.3,0.6,0.5,1.1,0.5
		c0.8,0,2.4,0.1,4.5,0.1c1.7,0,3.5-0.1,5.8-0.1c0.3,0,0.5,0.1,0.5,0.3c0,0.3-0.5,0.9-1.3,2.1c-2.3,3.7-5.7,8.5-7.7,11.3
		c-0.5,0.7-1.4,1.9-1.4,2.1c0,0.1,0,0.1,0.1,0.1h3.2c2.6,0,4.3,0.2,5.7-2.3c0.1-0.2,0.2-0.6,0.4-0.6c0.3,0,1,0.1,1,0.4
		c0,0.3-0.9,2.4-1,3.7c-2.3,0-5.1-0.1-6.7-0.1c-1.7,0-4.8,0.1-6.7,0.1c-0.5,0-0.8,0-0.8-0.4c0-0.4,0.6-1,0.9-1.4l2.4-3.4l3.2-4.6
		L62,38.8L62,38.8z"/>
	<path class="st2" d="M72.5,38.4c0-1.4-0.6-1.7-1.8-1.7c-0.2,0-0.2-0.1-0.2-0.2v-0.5c0-0.2,0.2-0.2,0.5-0.2c1.1,0,2.3,0.1,3.4,0.1
		c1.2,0,2.3-0.1,3.5-0.1c2.5,0,5.8,0.8,5.8,3.8c0,2.9-2.5,3.6-4.3,3.9v0c2.5,0.5,5.4,1.2,5.4,4.4c0,3.5-3.1,4.9-6.2,4.9
		c-1.6,0-3.2-0.1-4.5-0.1c-1.8,0-2.7,0.1-3.3,0.1c-0.1,0-0.3,0-0.3-0.1v-0.6c0-0.2,0.2-0.2,0.5-0.2c0.8,0,1.5-0.2,1.5-1.2V38.4
		L72.5,38.4z M75.7,43.2c2.4,0.1,4.4-0.3,4.4-3.4c0-2-0.8-2.9-2.7-2.9c-1.7,0-1.6,0.9-1.6,2.2V43.2L75.7,43.2z M75.7,49.2
		c0,1.7,0.4,2.7,2.3,2.7c2.5,0,3.2-1.4,3.2-3.7c0-3.9-2.9-3.9-5.5-3.9V49.2L75.7,49.2z"/>
	<path class="st2" d="M92.6,47.6c0,2.9,1.7,3.9,4.3,3.9c3.5,0,5.5-1.3,5.5-4.9v-8.1c0-1.6-0.5-1.8-1.9-1.8c-0.2,0-0.4-0.1-0.4-0.3
		V36c0-0.1,0.1-0.2,0.2-0.2c0.8,0,1.4,0.1,2.4,0.1c1.5,0,2.2-0.1,3.1-0.1c0.1,0,0.2,0,0.2,0.2v0.5c0,0.3,0,0.3-0.3,0.3
		c-1.8,0-1.9,0.6-1.9,2.2v7.2c0,2.1-0.2,3.9-1.9,5.3c-1.4,1.2-3.5,1.8-5.3,1.8c-4,0-7.4-1.1-7.4-5.6v-9.5c0-1.4-0.6-1.4-2-1.4
		c-0.1,0-0.3,0-0.3-0.2v-0.6c0-0.2,0.1-0.2,0.3-0.2c1.1,0,3,0.1,4.2,0.1c1.2,0,1.9-0.1,3-0.1c0.2,0,0.2,0,0.2,0.2v0.6
		c0,0.2-0.1,0.2-0.3,0.2c-1.4,0-1.9,0.2-1.9,1.7V47.6L92.6,47.6z"/>
	<path class="st2" d="M113.8,49.6c0,2,0.8,2.4,1.9,2.4c0.1,0,0.2,0.1,0.2,0.2v0.6c0,0.2-0.1,0.2-0.3,0.2c-1,0-1.9-0.1-2.9-0.1
		c-1,0-3.3,0.1-4.1,0.1c-0.3,0-0.3,0-0.3-0.2v-0.5c0-0.1,0-0.3,0.3-0.3c1.8-0.1,2-0.4,2-2.7v-9.4c0-2.5-0.2-3.1-1.3-3.1h-0.8
		c-0.1,0-0.1-0.1-0.1-0.2V36c0-0.1,0-0.2,0.2-0.2c1.1,0,2.9,0.1,4.7,0.1c2.7-0.1,1.9-0.1,3.9-0.1c1.6,0,4.9,0.9,4.9,4.1
		c0,2.1-1.9,3.2-3.9,3.5c1,0.7,1.8,1.8,2.4,2.8l2.5,3.9c0.7,1.1,1.4,1.8,2.7,1.8c0.1,0,0.1,0.1,0.1,0.1V53c-1,0-1.9-0.1-2.9-0.1
		c-0.6,0-1.2,0.1-1.7,0.1c-0.5,0-0.8-0.4-1.5-1.6l-3.2-5.5c-0.7-1.1-0.9-1.5-2.7-1.5V49.6L113.8,49.6z M113.8,43.2c0.3,0,0.7,0,1,0
		c2,0,3.7-1,3.7-3.1c0-1.8-0.9-3.2-3-3.2c-1.5,0-1.6,0.9-1.6,2V43.2L113.8,43.2z"/>
	<path class="st2" d="M150.5,29.5c0.1,1.5,0.4,4.4,0.4,4.8c0,0.2-0.1,0.2-0.4,0.2h-0.9c-0.1,0-0.2-0.1-0.5-0.7
		c-1.1-2.3-2.9-4.9-7.6-4.9c-6.3,0-9.7,4.6-9.7,12.3c0,3.4,2.7,10.5,9.2,10.5c3.6,0,5.8-1.1,5.8-5.1c0-2.9-0.7-3.5-3.5-3.5
		c-1.1,0-1.3,0-1.3-0.8c0-0.6,0.5-0.7,1.1-0.7c1.6,0,3.2,0.1,4.9,0.1c1.7,0,3.6-0.1,5.1-0.1c0.4,0,0.5,0.2,0.6,0.8
		c0,0.2,0,0.6-0.3,0.6c-2.3,0-2.4,0.4-2.4,3.5c0,1.7,0.1,3.2,0.2,4.6c-2.7,1.4-6.3,2.2-9.4,2.2c-8.1,0-15.2-3.9-15.2-12.9
		c0-8.2,7.2-13.5,15.1-13.5C144.6,27.2,147.9,28,150.5,29.5L150.5,29.5z"/>
	<path class="st2" d="M152.9,58.3c0-1.9,1.5-3.4,3.4-3.4c1.9,0,3.4,1.5,3.4,3.4c0,1.9-1.5,3.4-3.4,3.4
		C154.3,61.7,152.9,60.2,152.9,58.3L152.9,58.3z M152.4,58.3c0,2.1,1.7,3.9,3.9,3.9c2.1,0,3.9-1.7,3.9-3.9c0-2.1-1.7-3.9-3.9-3.9
		C154.1,54.4,152.4,56.2,152.4,58.3L152.4,58.3z M157.6,60.6h0.6l-1.4-2c0.6-0.1,1.2-0.5,1.2-1.3c0-0.8-0.5-1.3-1.5-1.3h-1.8v4.6
		h0.5v-2h1L157.6,60.6L157.6,60.6z M155.3,56.4h1.1c0.6,0,1.1,0.2,1.1,0.8c0,0.7-0.5,0.8-1.1,0.8h-1.1V56.4L155.3,56.4z"/>
	<g>
		<path class="st2" d="M6.7,65.9c1.3,0,2.3,0.2,3.4,1c0,0,0.1,0.1,0.1,0.1c0,0.1-0.2,0.6-0.4,1.2c-0.3,0.8-0.3,1.1-0.3,1.1
			c-0.1,0-0.8-0.2-0.8-0.3c0-0.1,0.1-0.5,0.1-0.6c0-1.2-0.9-1.7-2-1.7c-1.3,0-2.3,0.9-2.3,2.1c0,2.7,4.1,3.7,4.1,7.1
			c0,2.6-2.3,3.6-4.7,3.6c-1.1,0-2.8-0.4-3.7-0.9L0,78.4c0.3-0.8,0.6-1.6,0.8-2.4c0-0.1,0-0.1,0.1-0.1L1.5,76c0,0,0.1,0,0.1,0.1
			c0,0.1-0.1,0.6-0.1,0.9c0,1.2,1.2,1.6,2.3,1.6c1.3,0,2.5-0.8,2.5-2.1c0-2.6-4-3.9-4-6.8C2.2,67.4,4.2,65.9,6.7,65.9z"/>
		<path class="st2" d="M12.9,76.5c-0.1,0.2-0.2,0.7-0.2,0.9c0,0.3,0.1,0.5,0.5,0.5c0.8,0,1.3-0.7,1.8-1.2l0.5,0.3
			c-0.9,1.1-1.9,2.4-3.6,2.4c-0.9,0-1.4-0.5-1.4-1.3c0-0.7,1.3-4.4,1.5-5.1l0.3-1h-1.4c-0.1,0-0.2,0-0.2-0.1c0-0.1,0.1-0.7,0.2-0.7
			h1.6l0.5-1.7c0.2-0.7,0.4-0.8,1.1-0.8c0.3,0,0.9,0.1,0.9,0.5c0,0.4-0.4,1.4-0.6,2.1h1.8c0.1,0,0.2,0.1,0.2,0.1
			c0,0-0.1,0.7-0.2,0.7h-2L12.9,76.5z"/>
		<path class="st2" d="M25.6,76.7c-0.6,0.8-2,2.7-3.2,2.7c-0.6,0-1-0.3-1-1c0-0.8,0.7-2.4,0.9-3.1h0c-0.7,1.3-2.8,4-4.5,4
			c-1,0-1.3-0.7-1.3-1.6c0-2.7,4-6.7,6.8-6.7c0.3,0,0.5,0.1,0.8,0.1c0.2-0.2,0.4-0.5,0.6-0.7c0.1-0.1,0.4-0.1,0.6-0.1
			c0.3,0,0.5,0,0.6,0.1c-0.5,1.4-2.5,5.7-2.5,6.6c0,0.4,0.1,0.6,0.4,0.6c0.4,0,1.1-1,1.4-1.3L25.6,76.7z M18.4,76.8
			c0,0.6,0.1,0.9,0.8,0.9c1.2,0,3.9-4.5,3.9-5c0-0.3-0.4-0.4-0.6-0.4C20.4,72.3,18.4,75.2,18.4,76.8z"/>
		<path class="st2" d="M34.1,72.2c0.3,0.5,0.4,0.9,0.4,1.5c0,2.2-2.1,3.1-4.2,3.1c-0.3,0-0.7,0.4-0.7,0.7c0,1.2,4.5,1.3,4.5,4
			c0,2.3-3,2.6-4.5,2.6c-1.3,0-4.4-0.4-4.4-2.2c0-1.8,2.1-2.2,3.5-2.5c-0.4-0.2-0.9-0.5-0.9-1.1c0-0.8,1.1-1.4,1.7-1.8
			c-1.4-0.3-2.1-1.2-2.1-2.5c0-2,1.9-3.4,3.9-3.4c0.7,0,1.5,0.2,2.1,0.6l2.6-0.2l0.1,0.2l-0.4,1L34.1,72.2z M29.4,79.9
			c-0.5,0.1-2.4,0.5-2.4,1.9c0,1.3,1.6,1.6,2.6,1.6c0.9,0,2.5-0.3,2.5-1.5C32,80.7,29.7,80,29.4,79.9z M32.5,72.9
			c0-0.7-0.2-1.5-1.1-1.5c-1.4,0-2.2,2.2-2.2,3.3c0,0.8,0.4,1.4,1.2,1.4C31.8,76.1,32.5,74,32.5,72.9z"/>
		<path class="st2" d="M43.1,77.5c-0.9,1.2-2,2-3.6,2c-2,0-3-1.1-3-2.8c0-2.6,2.2-6,5.6-6c1,0,2.3,0.5,2.3,1.6
			c0,2.4-3.7,3.1-5.6,3.1c-0.1,0.2-0.1,0.6-0.1,1c0,1,0.5,1.8,1.7,1.8c0.9,0,1.7-0.5,2.3-1.1L43.1,77.5z M42.5,72.1
			c0-0.3-0.2-0.7-0.8-0.7c-1.2,0-2.5,2.3-2.8,3.3C40.5,74.6,42.5,73.9,42.5,72.1z"/>
		<path class="st2" d="M58.4,74.1c0,2.7-2.2,5.4-5.1,5.4c-2.1,0-3.3-1.5-3.3-3.4c0-2.7,2.2-5.4,5.1-5.4
			C57.2,70.7,58.4,72.2,58.4,74.1z M52.1,77.1c0,1,0.3,1.6,1.2,1.6c2,0,2.9-4.3,2.9-5.7c0-0.9-0.3-1.6-1.1-1.6
			C53,71.4,52.1,76,52.1,77.1z"/>
		<path class="st2" d="M65.9,71.2c0.1,0,0.2,0.1,0.2,0.1c0,0-0.1,0.7-0.2,0.7h-2l-1.1,5c-0.4,1.9-1.6,7.1-4.5,7.1
			c-0.5,0-1-0.3-1-0.8c0-0.4,0.2-0.7,0.7-0.7c0.5,0,0.7,0.4,1.1,0.4c0.4,0,0.4-0.3,0.5-0.5c0.5-1.7,0.9-3.5,1.2-5.2l1-5.1h-1.5
			c-0.1,0-0.2,0-0.2-0.1c0-0.1,0.1-0.7,0.2-0.7H62c0.4-2.2,1.5-6.6,4.7-6.6c0.7,0,1.6,0.2,1.6,1.1c0,0.4-0.4,0.9-0.9,0.9
			c-0.9,0-0.7-1.1-1.4-1.1c-1.1,0-1.6,4.6-2,5.7H65.9z"/>
		<path class="st2" d="M73.6,76.5c-0.1,0.2-0.2,0.7-0.2,0.9c0,0.3,0.1,0.5,0.5,0.5c0.8,0,1.3-0.7,1.8-1.2l0.5,0.3
			c-0.9,1.1-1.9,2.4-3.6,2.4c-0.9,0-1.4-0.5-1.4-1.3c0-0.7,1.3-4.4,1.5-5.1l0.3-1h-1.4c-0.1,0-0.2,0-0.2-0.1c0-0.1,0.1-0.7,0.2-0.7
			h1.6l0.5-1.7c0.2-0.7,0.4-0.8,1.1-0.8c0.3,0,0.9,0.1,0.9,0.5c0,0.4-0.4,1.4-0.6,2.1h1.8c0.1,0,0.2,0.1,0.2,0.1
			c0,0-0.1,0.7-0.2,0.7h-2L73.6,76.5z"/>
		<path class="st2" d="M80.9,78.5c0-0.4,0.4-0.8,0.8-0.8c0.6,0,0.8,0.5,1.1,0.5c1.3,0,2.3-4.4,2.3-5.2c0-0.6-0.2-1-0.8-1
			c-1.9,0-4.6,5.4-5.1,6.6c0,0.1-0.2,0.6-0.3,0.7c-0.2,0.1-0.6,0.1-0.9,0.1c-0.4,0-0.8-0.1-0.8-0.2c0-0.3,1.9-5.5,2-6.2
			c0.3-0.9,1.8-5.7,1.8-6.3c0-0.5-0.6-0.6-1.1-0.6h-0.4l0.2-0.6c1.7-0.2,3.2-0.6,3.8-0.7l0.2,0.1c-1,3.4-2,6.7-3.2,10h0
			c1-1.4,2.8-4.1,5.1-4.1c1.3,0,1.8,0.9,1.8,2.2c0,2.2-2.7,6.6-5.2,6.6C81.2,79.4,80.9,79.2,80.9,78.5z"/>
		<path class="st2" d="M95.1,77.5c-0.9,1.2-2,2-3.6,2c-2,0-3-1.1-3-2.8c0-2.6,2.2-6,5.6-6c1,0,2.3,0.5,2.3,1.6
			c0,2.4-3.7,3.1-5.6,3.1c-0.1,0.2-0.1,0.6-0.1,1c0,1,0.5,1.8,1.7,1.8c0.9,0,1.7-0.5,2.3-1.1L95.1,77.5z M94.6,72.1
			c0-0.3-0.2-0.7-0.8-0.7c-1.2,0-2.5,2.3-2.8,3.3C92.5,74.6,94.6,73.9,94.6,72.1z"/>
		<path class="st2" d="M111.5,74.2l-3.3,5.3h-0.9l-2.8-11.7c-0.3-1.1-1.2-0.8-1.2-1.1c0-0.1,0.1-0.6,0.3-0.6c0.5,0,1.5,0.1,2.2,0.1
			c0.8,0,1.7-0.1,2.4-0.1c0,0,0.1,0,0.1,0.1c0,0.1-0.1,0.6-0.2,0.6c-0.6,0-1.2,0.1-1.2,0.8c0,0.6,0.9,3.8,1.1,4.6l1.1,4.5l2.3-3.6
			l-1.4-5.5c-0.2-0.6-0.3-0.8-0.8-0.8c-0.2,0-0.2,0-0.2-0.1c0-0.1,0-0.6,0.2-0.6h0.1c0.6,0,1.2,0.1,1.8,0.1c0.8,0,1.8-0.1,2.2-0.1
			c0.1,0,0.1,0,0.1,0.1c0,0.1-0.1,0.6-0.3,0.6c-0.3,0-1,0-1,0.5c0,0.1,0,0.2,0,0.4l0.7,2.9l1.5-2.4c0.2-0.4,0.4-0.7,0.4-0.8
			c0-0.4-0.4-0.5-0.7-0.5c-0.1,0-0.1,0-0.1-0.1c0-0.1,0.1-0.7,0.3-0.7c0.4,0,1.1,0.1,1.7,0.1c0.6,0,1.3-0.1,1.9-0.1
			c0,0,0.1,0,0.1,0.1c0,0-0.1,0.6-0.2,0.6c-0.6,0-1.1,0.1-1.5,0.7l-2.8,4.2l1.3,5.1l4.9-7.9c0.4-0.6,0.7-1.3,0.7-1.5
			c0-0.5-0.4-0.5-1.1-0.5c-0.1,0-0.1-0.1-0.1-0.1c0-0.1,0-0.6,0.2-0.6c0.4,0,1.1,0.1,1.9,0.1c0.9,0,1.6-0.1,1.8-0.1
			c0.1,0,0.1,0,0.1,0.1c0,0-0.1,0.6-0.3,0.6c-1.2,0.1-1.8,1.4-2.6,2.7l-6.4,10h-0.8L111.5,74.2z"/>
		<path class="st2" d="M128.4,74.1c0,2.7-2.2,5.4-5.1,5.4c-2.1,0-3.3-1.5-3.3-3.4c0-2.7,2.2-5.4,5.1-5.4
			C127.2,70.7,128.4,72.2,128.4,74.1z M122.1,77.1c0,1,0.3,1.6,1.2,1.6c2,0,2.9-4.3,2.9-5.7c0-0.9-0.3-1.6-1.1-1.6
			C123,71.4,122.1,76,122.1,77.1z"/>
		<path class="st2" d="M131.9,78.6c-0.2,0.6-0.4,0.8-0.9,0.8c-0.3,0-1.1-0.1-1.1-0.5c0-0.8,1.8-4.4,1.8-5.6c0-0.4,0-0.7-0.5-0.7
			c-0.4,0-0.8,0.6-1,0.8l-0.4-0.3c0.4-0.9,1.4-2.5,2.6-2.5c0.9,0,1.1,0.6,1.1,1.4c0,0.7-0.2,1.3-0.3,2h0c0.7-1.2,1.6-3.4,3.3-3.4
			c0.5,0,0.9,0.3,0.9,0.9c0,0.5-0.2,1.3-0.8,1.3c-0.6,0-0.9-0.4-1.4-0.4c-0.7,0-1.8,2.1-2,2.7L131.9,78.6z"/>
		<path class="st2" d="M139,65.4c1.4-0.1,2.8-0.3,4.1-0.7l0.2,0.2c-0.5,1.2-4,11.9-4,12.6c0,0.2,0.2,0.4,0.4,0.4
			c0.5,0,1.3-1,1.7-1.4l0.4,0.4c-0.8,0.9-2.2,2.6-3.6,2.6c-0.6,0-1.2-0.2-1.2-0.9c0-1.2,3.5-11,3.5-11.9c0-0.6-1.2-0.6-1.7-0.6
			L139,65.4z"/>
		<path class="st2" d="M148.6,70.7c0.5,0,1.1,0.1,1.6,0.3l1.2-3.8c0.1-0.2,0.1-0.4,0.1-0.6c0-0.6-0.8-0.6-1.6-0.6l0.2-0.6
			c1.3-0.1,2.6-0.4,3.8-0.7l0.2,0.1l-3.1,10c-0.2,0.5-0.7,2.2-0.7,2.7c0,0.2,0.1,0.3,0.3,0.3c0.5,0,1.2-1.1,1.5-1.5l0.5,0.4
			c-0.7,1-1.9,2.8-3.3,2.8c-0.7,0-0.9-0.3-0.9-0.9c0-0.6,0.4-1.5,0.5-2.1h0c-0.9,1.3-2.1,3-4,3c-1.4,0-2-1.3-2-2.4
			C142.7,73.9,145.5,70.7,148.6,70.7z M144.8,77c0,0.5,0.2,1,0.9,1c1.9,0,3.9-4.1,3.9-5.6c0-0.6-0.5-1-1.2-1
			C146.1,71.4,144.8,75.3,144.8,77z"/>
	</g>
</g>
</svg>
