<?xml version="1.0" encoding="utf-8"?>
<!-- Generator: Adobe Illustrator 22.1.0, SVG Export Plug-In . SVG Version: 6.00 Build 0)  -->
<svg version="1.1" id="Layer_1" xmlns="http://www.w3.org/2000/svg" xmlns:xlink="http://www.w3.org/1999/xlink" x="0px" y="0px"
	 width="175.7px" height="81px" viewBox="0 0 175.7 81" style="enable-background:new 0 0 175.7 81;" xml:space="preserve">
<style type="text/css">
	.st0{fill-rule:evenodd;clip-rule:evenodd;fill:#DA2128;}
	.st1{fill-rule:evenodd;clip-rule:evenodd;fill:#929497;}
	.st2{fill-rule:evenodd;clip-rule:evenodd;fill:#FFFFFF;}
</style>
<g>
	<polygon class="st0" points="166.3,64.2 166,62.9 1.5,62.8 1.5,64.2 166.3,64.2 	"/>
	<path class="st1" d="M118.8,30c0.3-2.4,2.2-4.3,4.6-4.6l0,0v-2.9l0.4-0.7l0.5-0.2l0.8,0.3l0.2,0.6v2.9c2.1,0.5,3.7,2.4,4,4.6l0,0
		v1.4l2.3,0.6l1.9,2.9h4.8l-0.2-12.7l-1-0.9l-0.5-0.3l-0.7-0.7l-0.8-0.5l-1.2-0.2l-0.5-1h-0.9l-0.5-0.2l-0.5,0.5h-0.3l0.5-1.2
		l-0.5-0.9v-0.3l-0.2-0.2l-0.2-0.5h-0.5l-0.5-0.2v-0.5l-0.7,0.5l-0.8-0.2l-0.2,0.2l-1,0.5v0.7h-0.7l-0.7-2.9l-2.2-0.5l-0.2-0.5
		l0.2-0.1l-0.7-0.9l-0.9,0.9h0.2v0.5h-0.8l-0.5-0.8l-0.7,0.8l-1-1.2l-0.7,0.3l-0.5-0.5l-0.5,0.5l-0.5-0.7l-0.7,0.7l-0.3-0.3
		l-0.2-3.6l0.6-0.7V6.5h-1.3l-0.3,0.5l-0.5-0.5h-1.1l-0.4,0.5l-0.5-0.5h-1.2v1.2l0.8,0.5h-8.9V5.5l0.5-0.7V3.6l-0.9,0.2h-0.2l-1-3.8
		l-0.7,3.8h-0.3l-0.6-0.2l-0.2,0.9l-1-0.9l-1,1l-0.9-1l-1.2,1l-1-1l-1.2,1l-1-1L91,4.7l-1-1.2l-1.2,1V3.3h-3.1L83,5.1v2.2h-1.9
		l-0.7-4.6l-0.8,3.6h-4.8l-0.9,1h-4.7l0.5-0.8V5.3h-1.2l-0.3,0.5l-0.2-0.5h-1l-0.2,0.5l-0.5-0.5h-1v1.2l0.5,0.5l-0.2,3h-2.4
		l-0.4-0.8H62v4.4h-3l-2.2-1.7l-1.2,1.5v0.9l-4.8,0.3l-1,3.1L49,16.8L48,18l-1.5-1.4l-1.5,1.9v0.7l-0.9-0.9l-1,1.2l-0.5,0.2
		l-0.5-0.5L42,18.3l-0.5-0.8L41,17.8l-0.5-0.1L39.3,18L39.3,17L39,16.8l0.4-0.8l-1.2-1.9l-1.3,1.9l0.5,0.7L37.1,17V18l-9.4,0.3
		l-2.6,5h1.2L26,27.4l-3.4,3l-0.2,1.1l-1.2,1.2v2.2l7.9-0.2v-1.9l3.6-2.2l6.3-0.2v-2.5c0.1-2.2,1.6-4,3.8-4.4l0.1-1.2l0.7-0.5
		l0.7,0.6l0.1,1.2c2.2,0.3,3.8,2.2,3.9,4.4v3h7.9V31h2.2l0.2-3.9l0.8-0.2v-3.4l1.2-1.2l0.1-0.5l0.2,0.5l1.2,1.2l0.2,3.3l0.8,0.5
		l0.2,3.6l0.9-0.9l0.5-1h1.2l1-2.1l1.2-0.5v-3.2l1.2-1l0.1-0.7l0.2,0.7l1.2,1v3.6l0.5,0.8l0.5,0.2l0.2,2.6h10.6l1.9,1.6v2l2.4-0.5
		l2.2-3.3h4.6l0.9,0.7v-7.5h0.7l1.2-6.5l1.2,6.5h0.8v11.6h4.3v-1.5h0.3l0.2,0.5l0.5-0.2v-0.3h0.6l0.3,0.3l0.5-0.3h0.5v1.5h5.5v-1.5
		h0.8l0.2,0.5l0.5-0.5v-0.2l0.7,0.2l0.5,0.2l0.5-0.5h0.5v1.5h2.2l1.6-0.9L118.8,30L118.8,30z"/>
	<path class="st2" d="M3.3,50.4c1,2.4,2.3,5.1,6.2,5.1c3.2,0,5.7-1.6,5.7-4.4c0-6.7-13.3-5.1-13.3-14.1c0-5.4,4.1-8.2,9.1-8.2
		c2.5,0,5.9,1.2,6.6,2.1v4.7h-1.8c-0.5-3-2-5.1-5.1-5.1c-2.6,0-4.7,1.4-4.7,4.2c0,6.6,13.3,4.7,13.3,14.1c0,5.4-4.7,8.5-9.7,8.5
		c-2.5,0-4.9-0.5-7.2-1.6c-0.2-1.7-0.4-3.4-0.6-5.2H3.3L3.3,50.4z"/>
	<path class="st2" d="M26.6,50c-0.1,0-0.2,0-0.3,0.1l-0.9,2.8c-0.3,0.9-0.6,1.7-0.6,2.2c0,0.9,0.6,1.1,1.9,1.1
		c0.2,0,0.3,0.2,0.3,0.3V57c0,0.2-0.2,0.2-0.5,0.2c-0.9,0-1.8-0.2-2.9-0.2c-1.6,0-2.4,0.2-2.9,0.2c-0.1,0-0.2-0.1-0.2-0.2v-0.5
		c0-0.2,0.2-0.4,0.4-0.4c1,0,1.7-0.2,2.1-1.4c0.5-1.3,1.1-2.8,1.6-4.2l2.8-8.1c0.2-0.7,0.5-1.5,0.8-2.6c0.2-0.5,0.3-0.7,1.2-1.3
		c0.5-0.4,0.9-0.7,1-0.7c0.2,0,0.2,0.4,0.3,0.5l6.3,15.4c0.7,1.9,0.9,2.1,1.9,2.3c0.8,0.2,0.9,0.2,0.9,0.3v0.5c0,0.1,0,0.3-0.3,0.3
		c-0.8,0-2.3-0.2-3.4-0.2c-1.6,0-2.9,0.2-4,0.2c-0.2,0-0.2-0.1-0.2-0.2v-0.6c0-0.3,0.2-0.3,0.3-0.3c1.4,0,1.7-0.5,1.7-1
		c0-0.6-1.5-3.9-1.9-5.1H26.6L26.6,50z M31.2,48.7l-2.5-6l0,0l-2,6H31.2L31.2,48.7z"/>
	<path class="st2" d="M47.9,53.7c0,1.6,0.4,2.3,3,2.3c3.2,0,3.5-0.1,5-2.8c0.2-0.2,0.2-0.3,0.4-0.3c0.2,0,0.9,0.2,0.9,0.3
		c0,0.2-0.1,0.8-0.2,1.3c-0.2,0.9-0.5,1.9-0.7,2.7c-2.4,0-5.3-0.2-7-0.2c-1.7,0-5.1,0.2-7.1,0.2c-0.1,0-0.2-0.1-0.2-0.2v-0.5
		c0-0.2,0.1-0.3,0.3-0.3c1.8,0,2.2-0.5,2.2-2.6v-11c0-2-0.5-2.7-2.2-2.7c-0.2,0-0.3-0.1-0.3-0.2v-0.5c0-0.2,0.1-0.3,0.3-0.3
		c0.5,0,1.9,0.2,4.5,0.2c1.2,0,2.3-0.2,3.4-0.2c0.2,0,0.2,0.1,0.2,0.2v0.5c0,0.2-0.1,0.3-0.3,0.3c-1.2,0-2.2,0.2-2.2,1.6V53.7
		L47.9,53.7z"/>
	<path class="st2" d="M68.6,41.9c0.5-0.7,1.1-1.5,1.1-1.7c0-0.2-0.1-0.2-0.2-0.2h-4.8c-1.6,0-2.7,0.2-3.5,1.2
		c-0.6,0.9-1,1.8-1.2,1.8c-0.2,0-0.7-0.3-1-0.5c0.5-1.6,0.9-3.2,1.3-4.7c0.3-0.1,0.6-0.2,0.9-0.2c0.2,0,0.5,0.3,0.7,0.6
		c0.2,0.3,0.6,0.5,1.2,0.5c0.9,0,2.6,0.2,4.9,0.2c1.8,0,3.9-0.2,6.3-0.2c0.4,0,0.5,0.2,0.5,0.4c0,0.2-0.5,0.9-1.4,2.3
		c-2.5,4-6.1,9.2-8.2,12.2c-0.5,0.7-1.5,2-1.5,2.3c0,0.1,0,0.2,0.1,0.2h3.5c2.8,0,4.7,0.2,6.1-2.5c0.1-0.2,0.2-0.6,0.5-0.6
		c0.3,0,1.1,0.1,1.1,0.4c0,0.4-0.9,2.6-1.2,4c-2.4,0-5.4-0.2-7.2-0.2s-5.1,0.2-7.2,0.2c-0.5,0-0.9,0-0.9-0.5c0-0.4,0.7-1.1,0.9-1.5
		l2.6-3.7l3.4-5L68.6,41.9L68.6,41.9z"/>
	<path class="st2" d="M80,41.5c0-1.6-0.6-1.8-1.9-1.8c-0.2,0-0.2-0.2-0.2-0.2v-0.5c0-0.2,0.2-0.3,0.5-0.3c1.2,0,2.4,0.2,3.7,0.2
		c1.2,0,2.5-0.2,3.8-0.2c2.6,0,6.2,0.9,6.2,4.2c0,3-2.7,3.9-4.7,4.2v0.1c2.7,0.5,5.9,1.3,5.9,4.7c0,3.8-3.3,5.4-6.7,5.4
		c-1.7,0-3.5-0.2-4.9-0.2c-1.9,0-3,0.2-3.6,0.2c-0.2,0-0.3,0-0.3-0.2v-0.7c0-0.2,0.2-0.2,0.5-0.2c0.9,0,1.6-0.2,1.6-1.2V41.5
		L80,41.5z M83.5,46.7c2.6,0.1,4.7-0.3,4.7-3.7c0-2.2-0.9-3.2-3-3.2c-1.8,0-1.8,0.9-1.8,2.4V46.7L83.5,46.7z M83.5,53.1
		c0,1.9,0.4,2.9,2.5,2.9c2.7,0,3.5-1.5,3.5-4c0-4.1-3.1-4.1-6-4.1V53.1L83.5,53.1z"/>
	<path class="st2" d="M101.7,51.4c0,3.2,1.9,4.3,4.7,4.3c3.7,0,5.9-1.4,5.9-5.3v-8.8c0-1.6-0.5-1.9-2-1.9c-0.2,0-0.4-0.2-0.4-0.3
		v-0.5c0-0.1,0.1-0.2,0.2-0.2c0.8,0,1.6,0.2,2.6,0.2c1.6,0,2.4-0.2,3.3-0.2c0.2,0,0.2,0.1,0.2,0.2v0.5c0,0.3-0.1,0.4-0.4,0.4
		c-1.9,0-2,0.6-2,2.3v7.8c0,2.3-0.2,4.2-2.1,5.8c-1.5,1.3-3.7,2-5.7,2c-4.4,0-8-1.2-8-6.1V41.3c0-1.5-0.6-1.6-2.1-1.6
		c-0.2,0-0.3-0.1-0.3-0.2v-0.5c0-0.2,0.2-0.3,0.3-0.3c1.2,0,3.3,0.2,4.6,0.2c1.2,0,2-0.2,3.3-0.2c0.2,0,0.2,0.1,0.2,0.2v0.6
		c0,0.2-0.2,0.2-0.4,0.2c-1.6,0-2.1,0.2-2.1,1.9V51.4L101.7,51.4z"/>
	<path class="st2" d="M124.6,53.5c0,2.3,0.9,2.6,2,2.6c0.2,0,0.2,0.1,0.2,0.2V57c0,0.2-0.1,0.2-0.2,0.2c-1.1,0-2.1-0.2-3.2-0.2
		c-1.1,0-3.5,0.2-4.4,0.2c-0.2,0-0.3-0.1-0.3-0.2v-0.5c0-0.2,0-0.4,0.3-0.4c1.9-0.2,2.2-0.5,2.2-2.9V43.1c0-2.6-0.2-3.3-1.5-3.3
		h-0.8c-0.2,0-0.2-0.1-0.2-0.2l0.1-0.6c0-0.2,0-0.2,0.2-0.2c1.2,0,3.1,0.2,5.1,0.2c3-0.2,2-0.1,4.3-0.2c1.6,0,5.2,0.9,5.2,4.4
		c0,2.3-2,3.5-4.2,3.9c1.1,0.7,1.9,1.9,2.6,3l2.6,4.2c0.8,1.2,1.6,1.9,3,1.9c0.2,0,0.2,0.1,0.2,0.2v0.9c-1-0.1-2.1-0.2-3.1-0.2
		c-0.7,0-1.4,0.2-1.9,0.2c-0.6,0-0.9-0.5-1.6-1.8l-3.5-6c-0.7-1.2-0.9-1.6-2.9-1.6V53.5L124.6,53.5z M124.6,46.6
		c0.3,0.1,0.7,0.1,1,0.1c2.2,0,4-1.1,4-3.4c0-1.9-1-3.5-3.3-3.5c-1.6,0-1.7,1-1.7,2.2V46.6L124.6,46.6z"/>
	<path class="st2" d="M164.2,31.9c0.2,1.7,0.5,4.7,0.5,5.2c0,0.2-0.2,0.2-0.4,0.2h-0.9c-0.2,0-0.2-0.2-0.5-0.8
		c-1.2-2.5-3.1-5.3-8.2-5.3c-6.8,0-10.4,5.1-10.4,13.3c0,3.7,2.9,11.3,9.9,11.3c3.9,0,6.3-1.2,6.3-5.5c0-3.1-0.8-3.8-3.8-3.8
		c-1.2,0-1.4,0-1.4-0.8c0-0.7,0.5-0.8,1.2-0.8c1.7,0,3.5,0.2,5.2,0.2c1.9,0,3.9-0.2,5.5-0.2c0.5,0,0.5,0.2,0.6,0.9
		c0,0.2,0,0.7-0.4,0.7c-2.4,0-2.6,0.5-2.6,3.8c0,1.9,0.2,3.4,0.2,5.1c-3,1.6-6.8,2.3-10.1,2.3c-8.7,0-16.4-4.1-16.4-13.9
		c0-8.9,7.8-14.5,16.3-14.5C157.9,29.4,161.4,30.2,164.2,31.9L164.2,31.9z"/>
	<path class="st2" d="M2.3,77.3c-0.5,1.9-0.8,2.6-1.5,2.8l-0.6,0.2C0.1,80.3,0,80.3,0,80.5c0,0.2,0,0.2,0.1,0.2
		c0.2,0,0.6-0.1,2.1-0.1c0.9,0,1.9,0.1,2.9,0.1c1.2,0,2.3-0.2,3.2-0.4c1.3-0.5,4.9-2.2,4.9-6.4c0-4-2.6-5.1-6.1-5.1
		c-1.4,0-2.9,0.1-4.2,0.2c-0.1,0.1-0.1,0.5-0.1,0.6c0.2,0,0.5,0,0.8,0c0.4,0,0.8,0,0.8,0.5c0,0.2-0.2,0.8-0.2,1L2.3,77.3L2.3,77.3z
		 M5.8,70c0.2-0.5,0.2-0.5,1-0.5c2.7,0,4.6,1.3,4.6,4.2c0,3.5-2.6,6.5-6.1,6.5c-1.1,0-2.1,0-2.1-0.8c0-0.3,0.7-2.5,0.9-3.3L5.8,70
		L5.8,70z"/>
	<path class="st2" d="M16.4,75.2c0.2-0.3,0.7-0.7,1-0.7c0.2,0,0.2,0.1,0.2,0.3c0,0.7-1.9,4.7-1.9,5.4c0,0.5,0.3,0.7,0.9,0.7
		c1.1,0,2.4-1.5,3-2.4c0-0.1-0.2-0.2-0.3-0.2c-0.4,0.4-1.2,1.5-1.7,1.5c-0.2,0-0.4-0.2-0.4-0.3c0-0.5,1.9-4.8,1.9-5.4
		c0-0.5-0.3-0.8-0.9-0.8c-0.6,0-1.9,1.1-2.3,1.6L16.4,75.2L16.4,75.2z M18.5,69.6c0,0.4,0.3,0.8,0.7,0.8c0.5,0,0.8-0.4,0.8-0.8
		c0-0.5-0.3-0.8-0.8-0.8C18.8,68.9,18.5,69.2,18.5,69.6L18.5,69.6z"/>
	<path class="st2" d="M22.1,78.5c0,1.4,0.6,2.5,2.2,2.5c1.2,0,2.2-0.6,2.9-1.6c-0.1-0.2-0.2-0.2-0.3-0.2c-0.6,0.6-1.2,0.9-2,0.9
		c-0.9,0-1.4-0.8-1.4-1.6c0-0.4,0.1-0.8,0.2-1.2c1.5-0.1,4.6-0.6,4.6-2.5c0-1.1-0.9-1.4-1.9-1.4C23.8,73.4,22.1,76.3,22.1,78.5
		L22.1,78.5z M27,74.7c0,1.6-2.2,2.1-3.3,2.2c0.4-1.1,1.2-3,2.6-3C26.7,73.8,27,74.2,27,74.7L27,74.7z"/>
	<path class="st2" d="M38.2,79.6c-0.2,0.5-0.5,0.6-1,0.6c-0.2,0-0.3,0-0.3,0.2v0.2c0,0.2,0,0.2,0.2,0.2c0.4,0,0.9-0.1,1.4-0.1
		c0.7,0,1.5,0.1,2.2,0.1c2.2,0,5.4-0.9,5.4-3.7c0-1.3-1.1-2.3-2.4-2.6v-0.1c1.6-0.2,3.3-1.2,3.3-2.9c0-1.7-1.7-2.5-3.4-2.5
		c-1.3,0-2.4,0-3.7,0.2c-0.1,0-0.1,0.3-0.1,0.5c0.3,0,0.5-0.1,0.9-0.1c0.3,0,0.4,0.2,0.4,0.5c0,0.2-0.1,0.5-0.2,1.2L38.2,79.6
		L38.2,79.6z M41,74.8c0.1,0,0.2,0,0.3,0c1.6,0,3,0.5,3,2.3c0,1.8-1.6,3.1-3.3,3.1c-0.4,0-1.4,0-1.4-0.5c0-0.1,0.2-0.6,0.3-1.2
		L41,74.8L41,74.8z M42.3,70.3c0.2-0.6,0.3-0.6,1-0.6c1.2,0,1.9,0.5,1.9,1.7c0,2.1-2,2.9-3.4,2.9c-0.3,0-0.5,0-0.6-0.1L42.3,70.3
		L42.3,70.3z"/>
	<path class="st2" d="M52.5,70.8c0,0.5,0.4,0.8,0.8,0.8c0.5,0,0.8-0.3,0.8-0.8c0-0.5-0.3-0.8-0.8-0.8C52.9,70,52.5,70.3,52.5,70.8
		L52.5,70.8z M55.9,70.8c0,0.5,0.3,0.8,0.8,0.8c0.4,0,0.8-0.3,0.8-0.8c0-0.5-0.4-0.8-0.8-0.8C56.2,70,55.9,70.3,55.9,70.8L55.9,70.8
		z M50.4,75.5c0.2-0.2,0.7-0.7,0.9-0.7c0.1,0,0.2,0.1,0.2,0.2c0,0.5-1.9,4.3-1.9,5.4c0,0.3,0.2,0.5,0.5,0.5c0.8,0,4.4-4,5.1-4.8h0.1
		c-0.2,0.6-1.5,3.7-1.5,4.2c0,0.4,0.2,0.6,0.5,0.6c1.1,0,2.6-1.9,3.2-2.8c0-0.1-0.2-0.2-0.3-0.2c-0.4,0.5-1.2,1.6-1.7,1.6
		c-0.2,0-0.2-0.1-0.2-0.2c0-0.8,1.9-5.3,1.9-5.5c0-0.2-0.2-0.5-0.4-0.5c-0.2,0-0.3,0-0.4,0.2c-0.4,0.5-0.7,1.2-1.2,1.6
		c-0.5,0.7-3.2,4.1-3.8,4.1c-0.2,0-0.3-0.1-0.3-0.2c0-0.2,0.2-0.8,0.5-1.5l1.1-2.7c0-0.2,0.3-0.7,0.3-1c0-0.3-0.3-0.5-0.6-0.5
		c-0.8,0-1.7,1.2-2.3,1.8L50.4,75.5L50.4,75.5z"/>
	<path class="st2" d="M63.6,72.7c0.2-0.8,1.3-4.6,1.3-4.7c0-0.1-0.2-0.1-0.2-0.1c-0.2,0-0.4,0.1-0.6,0.1c-0.5,0.2-1.2,0.2-1.8,0.4
		l-0.1,0.4c0.8,0.1,1,0.2,1,0.7c0,0.5-0.9,3.6-0.9,4.1c-0.3,1-2.2,6.7-2.2,7.1c0,0.2,0.4,0.4,0.5,0.4c0.2,0,0.3,0,0.4-0.2
		c0.2-0.5,0.3-1.2,1.1-2.4c1-1.7,2.6-4,3.8-4c0.5,0,0.7,0.5,0.7,0.9c0,0.9-0.9,4.7-1.9,4.7c-0.2,0-0.3-0.1-0.4-0.2
		c-0.1-0.1-0.2-0.2-0.4-0.2c-0.4,0-0.6,0.4-0.6,0.8c0,0.4,0.5,0.5,0.8,0.5c2,0,3.9-4.1,3.9-5.8c0-0.9-0.3-1.8-1.4-1.8
		c-1.7,0-3.5,2.7-4.4,4l-0.1-0.1L63.6,72.7L63.6,72.7z"/>
	<path class="st2" d="M78.6,78.5c-0.2,0.3-1.1,1.1-1.6,1.1c-0.2,0-0.2-0.1-0.2-0.2c0-0.2,0.8-2.1,1-2.5c0.5-1.2,0.9-2,0.9-2.7
		c0-0.5-0.5-0.9-1.2-0.9c-1.4,0-3.2,1.9-4,3v-0.1c0.2-0.7,0.4-1.4,0.4-1.9c0-0.5-0.1-1-0.8-1c-0.9,0-2,1.9-2,2
		c0,0.1,0.3,0.3,0.3,0.3c0.1,0,0.5-1,1.2-1c0.2,0,0.4,0.2,0.4,0.5c0,0.4-0.5,1.9-0.8,2.3c-0.1,0.4-1.2,3-1.2,3.1
		c0,0.3,0.5,0.4,0.6,0.4c0.4,0,0.8-0.9,1.2-1.9c0.2-0.4,0.5-1,0.6-1.3c0.2-0.3,2.2-3.5,3.5-3.5c0.3,0,0.5,0.2,0.5,0.5
		c0,0.9-2,5.1-2,5.8c0,0.3,0.3,0.5,0.6,0.5c0.8,0,2.6-1.6,3-2.2L78.6,78.5L78.6,78.5z"/>
	<path class="st2" d="M81.8,78.5c0,1.4,0.6,2.5,2.2,2.5c1.2,0,2.2-0.6,2.9-1.6c-0.1-0.2-0.2-0.2-0.3-0.2c-0.6,0.6-1.2,0.9-2,0.9
		c-0.9,0-1.4-0.8-1.4-1.6c0-0.4,0.1-0.8,0.2-1.2c1.5-0.1,4.6-0.6,4.6-2.5c0-1.1-0.9-1.4-1.9-1.4C83.6,73.4,81.8,76.3,81.8,78.5
		L81.8,78.5z M86.7,74.7c0,1.6-2.2,2.1-3.3,2.2c0.3-1.1,1.2-3,2.6-3C86.5,73.8,86.7,74.2,86.7,74.7L86.7,74.7z"/>
	<path class="st2" d="M105.3,69.3c0.1-0.5,0.2-0.9,0.2-1c0.1-0.2,0.1-0.2,0.1-0.3s-0.1-0.1-0.2-0.1c-0.2,0-1.4,0.3-2.5,0.5l-0.1,0.4
		c0.5,0,1.1,0,1.1,0.6c0,0.3-0.2,0.7-0.2,1l-0.8,3.3l-0.1,0.1c-0.4-0.2-0.9-0.3-1.3-0.3c-2.4,0-4.7,3.1-4.7,5.5
		c0,1.1,0.2,2.1,1.5,2.1c1.6,0,3-2.3,3.7-3.4v0.1c-0.2,0.5-0.6,2-0.6,2.6c0,0.5,0.3,0.8,0.6,0.8c1.1,0,2-1.4,2.8-2.7l-0.4-0.2
		c-0.2,0.4-1,1.6-1.5,1.6c-0.2,0-0.3-0.2-0.3-0.4c0-0.2,0.2-0.9,0.2-1.2L105.3,69.3L105.3,69.3z M99,79.8c-0.5,0-0.9-0.4-0.9-0.9
		c0-1.4,1.5-5,3.1-5c0.9,0,1.2,0.5,1.2,1.3C102.4,76.3,100.3,79.8,99,79.8L99,79.8z"/>
	<path class="st2" d="M107.6,78.5c0,1.4,0.6,2.5,2.2,2.5c1.2,0,2.2-0.6,2.9-1.6c-0.1-0.2-0.2-0.2-0.3-0.2c-0.6,0.6-1.2,0.9-2,0.9
		c-0.9,0-1.4-0.8-1.4-1.6c0-0.4,0.1-0.8,0.2-1.2c1.4-0.1,4.6-0.6,4.6-2.5c0-1.1-0.9-1.4-1.9-1.4C109.3,73.4,107.6,76.3,107.6,78.5
		L107.6,78.5z M112.5,74.7c0,1.6-2.2,2.1-3.3,2.2c0.3-1.1,1.2-3,2.6-3C112.2,73.8,112.5,74.2,112.5,74.7L112.5,74.7z"/>
	<path class="st2" d="M118.1,73.4c-0.8,0-1.6,1.4-1.9,2c0.1,0.1,0.2,0.2,0.4,0.3c0.2-0.4,0.6-1,0.9-1c0.6,0,0.7,0.5,0.7,0.9
		c0,0.5-0.3,1.5-0.6,2.5c-0.5,1.3-0.9,2.4-0.9,2.6c0,0.2,0.5,0.3,0.7,0.3c0.5,0,1.1-2.3,1.3-2.9c0.4-0.9,1.7-3.6,2.3-3.6
		c0.1,0,0.2,0.1,0.3,0.2c0.1,0.1,0.2,0.2,0.4,0.2c0.5,0,0.9-0.3,0.9-0.8c0-0.5-0.5-0.8-0.9-0.8c-0.9,0-2.2,2.3-2.8,3.2l0,0
		c0.2-0.8,0.3-1.5,0.3-1.9C119.1,74.2,118.8,73.4,118.1,73.4L118.1,73.4z"/>
	<path class="st2" d="M134.6,81h0.6l2.9-5.5l0,0l1,5.5h0.6l4.5-8.4c0.4-0.7,1.1-1.9,1.2-2.2c0.4-0.7,0.6-0.8,0.9-0.8
		c0.1,0,0.1-0.4,0.1-0.5c0-0.1-0.1-0.1-0.2-0.1c-0.3,0-0.8,0.1-1.2,0.1c-0.4,0-0.9-0.1-1.2-0.1c-0.1,0-0.2,0.2-0.2,0.4
		c0,0.2,0.1,0.2,0.3,0.2c0.6,0,0.7,0.2,0.7,0.5c0,0.3-1,2.2-1.2,2.6l-3.3,6.4l0,0l-1-5.2l1.7-3c0.4-0.9,1-1.2,1.8-1.2
		c0.2,0,0.2-0.1,0.2-0.2v-0.3c0-0.1,0-0.1-0.2-0.1c-0.4,0-0.9,0.1-1.3,0.1c-0.5,0-0.9-0.1-1.4-0.1c-0.1,0-0.2,0-0.2,0.1v0.2
		c0,0.2,0.1,0.2,0.3,0.2c0.3,0,0.4,0.1,0.4,0.2c0,0.2-0.1,0.4-0.5,1.2l-1.1,2l0,0l-0.4-2.4c-0.1-0.3-0.1-0.4-0.1-0.6
		c0-0.2,0.2-0.4,0.5-0.4c0.2,0,0.3-0.1,0.3-0.2v-0.2c0-0.1,0-0.1-0.2-0.1c-0.2,0-0.9,0.1-1.5,0.1c-1.1,0-1.3-0.1-1.7-0.1
		c-0.1,0-0.2,0-0.2,0.1v0.3c0,0.2,0.1,0.2,0.2,0.2c0.5,0,0.9,0.2,1.2,1l0.9,4l-2.3,4.4l0,0l-1.6-7.8c-0.1-0.8-0.2-1.1-0.2-1.2
		c0-0.3,0.2-0.4,0.9-0.4c0.2,0,0.2-0.2,0.2-0.5c0-0.1,0-0.1-0.1-0.1c-0.2,0-0.9,0.1-1.5,0.1c-0.6,0-1.3-0.1-1.9-0.1
		c0,0-0.1,0-0.1,0.1v0.2c0,0.2,0,0.2,0.2,0.2c0.6,0,0.8,0.5,1,1.5L134.6,81L134.6,81z"/>
	<path class="st2" d="M146.8,78.5c0,1.4,0.6,2.5,2.2,2.5c1.2,0,2.2-0.6,2.9-1.6c-0.1-0.2-0.2-0.2-0.3-0.2c-0.6,0.6-1.2,0.9-1.9,0.9
		c-1,0-1.5-0.8-1.5-1.6c0-0.4,0.1-0.8,0.2-1.2c1.5-0.1,4.7-0.6,4.7-2.5c0-1.1-1-1.4-1.9-1.4C148.5,73.4,146.8,76.3,146.8,78.5
		L146.8,78.5z M151.7,74.7c0,1.6-2.2,2.1-3.3,2.2c0.3-1.1,1.2-3,2.5-3C151.4,73.8,151.7,74.2,151.7,74.7L151.7,74.7z"/>
	<path class="st2" d="M155.6,79.3c-0.1,0.5-0.2,0.9-0.2,1c0,0.4,0.3,0.7,0.7,0.7c1,0,2.4-1.4,3-2.2v-0.1l-0.2-0.2h-0.1
		c-0.4,0.3-1.1,1.2-1.6,1.2c-0.2,0-0.4-0.2-0.4-0.4c0-0.3,0.2-1,0.4-1.8l2.6-8.7c0.2-0.5,0.3-0.9,0.3-0.9s-0.1-0.1-0.2-0.1
		c-0.2,0-1.6,0.3-2.4,0.5l-0.2,0.4c0.4,0,0.9,0.2,0.9,0.7c0,0.1-0.1,0.9-0.2,1.3L155.6,79.3L155.6,79.3z"/>
	<path class="st2" d="M162.1,74.2h1.2l-0.9,3.4c-0.1,0.3-0.7,2.2-0.7,2.6c0,0.5,0.5,0.8,0.9,0.8c1.2,0,2.5-1.2,3.2-1.9
		c-0.2-0.2-0.2-0.3-0.3-0.3c-0.5,0.5-1.2,1.2-1.9,1.2c-0.3,0-0.6-0.1-0.6-0.5c0-0.2,0.5-1.9,0.6-2.3l0.8-3h1.9
		c0.1,0,0.2-0.2,0.2-0.4c0-0.2-0.2-0.2-0.4-0.2h-1.5l0.2-0.5c0.1-0.4,0.2-0.9,0.2-1c0-0.2-0.3-0.3-0.5-0.3c-0.2,0-0.5,0.2-0.5,0.5
		l-0.3,1.3h-1.5V74.2L162.1,74.2z"/>
	<path class="st2" d="M171.6,67.4c2.3,0,4.2-1.9,4.2-4.2c0-2.3-1.9-4.2-4.2-4.2c-2.3,0-4.2,1.9-4.2,4.2
		C167.4,65.5,169.2,67.4,171.6,67.4L171.6,67.4z M171.6,66.8c-2,0-3.7-1.6-3.7-3.7c0-2,1.6-3.7,3.7-3.7c2,0,3.7,1.6,3.7,3.7
		C175.2,65.2,173.6,66.8,171.6,66.8L171.6,66.8z M172.3,63.4c0.8,0,1.4-0.3,1.4-1.2c0-0.7-0.4-1.2-1.6-1.2h-2v4.6h0.5v-2.2h1.1
		l1.3,2.2h0.6L172.3,63.4L172.3,63.4z M170.5,63v-1.5h1.3c0.6,0,1.2,0.2,1.2,0.7c0,0.9-1,0.8-1.6,0.8H170.5L170.5,63z"/>
</g>
</svg>
