<?xml version="1.0" encoding="utf-8"?>
<!-- Generator: Adobe Illustrator 22.1.0, SVG Export Plug-In . SVG Version: 6.00 Build 0)  -->
<svg version="1.1" id="Layer_1" xmlns="http://www.w3.org/2000/svg" xmlns:xlink="http://www.w3.org/1999/xlink" x="0px" y="0px"
	 width="175.1px" height="33.6px" viewBox="0 0 175.1 33.6" style="enable-background:new 0 0 175.1 33.6;" xml:space="preserve">
<style type="text/css">
	.st0{fill:#FFFFFF;}
	.st1{fill:#ED1C24;}
</style>
<g>
	<g>
		<path class="st0" d="M41.4,11.9C41.5,12,41.5,12,41.4,11.9c-0.1,0.1-0.1,0.2-0.2,0.2l-0.1,0.1c-0.3,0.1,0.2,0,0,0.1
			c-0.6,0.2,0.3,0-0.1,0.3c0.1,0,0.6-0.1,0.5,0c0.1,0.1,1.9-0.5,1.7-0.3c0.6-0.1,0.1,0,0.6-0.1c-0.1,0.1,0.1,0.1,0.3,0.1H44
			c0.3,0-0.1,0.1,0.2,0.1c-0.1,0.1,0.3,0,0.3,0c-0.1,0.1,0.2,0.1,0.1,0.2c0.1,0,0.1,0.1,0.2,0.1c-0.2,0.1,0.2,0.1,0.1,0.2
			c0.2,0,0,0.1,0,0.2c-0.3,0.2,0,0.1-0.3,0.3c-0.1,0.1,0.2,0,0.1,0.1c0,0.1-0.1,0.1,0,0.2c-0.1,0-0.2,0.1-0.2,0.2
			c0,0,0.1,0.2-0.1,0.4c-0.1,0,0,0.2-0.2,0.3s0.8,0,0.8,0.1c0.2,0-0.1,0.2,0.1,0.2C45,15,45.2,14.9,45,15c0.3,0-0.6,0.3-0.3,0.3
			c-0.1,0.1-0.4,0.1-0.3,0.1c0,0,0,0.1-0.1,0.1s-0.3,0.1-0.2,0.1c-0.1,0.1,0,0.1,0,0.1c0.1,0-0.4,0.2-0.3,0.2c0.2,0,0.1,0.1,0.2,0.2
			c-0.1,0.2-0.2,0.1-0.4,0.2s0.2,0-0.1,0.1c-0.6,0.2,0.1,0.1-0.4,0.2c-0.4,0.1-0.4,0.4-0.9,0.4c-0.2,0.1-0.1,0.1-0.2,0.2
			c0.3-0.1-0.1,0.2,0.3,0c0.4-0.1,0,0.2,0.3,0.1h-0.1c0.1,0-0.7,0.3-0.6,0.3c0,0,0.1,0,0,0.1c-0.2,0.1-0.5,0.1-0.6,0.2
			c0.3-0.1-0.2,0.2,0,0.1c0.1,0,0.1,0.1,0.1,0.1h-0.1h0.1l-0.2,0.1h0.2c-0.2,0-0.1,0.1-0.2,0.1c0,0,0.2-0.1,0.2,0l0.1-0.1
			c0.1,0,0.1,0,0.1,0c-0.2,0.1-0.2,0.2-0.2,0.2c-0.3,0.2-2.4,0.2-2.6,0.4c-0.3,0.1-0.5,0.1-0.9,0.2c-0.1,0-0.3,0-0.4,0
			c-0.4,0.1-0.4-0.1-0.7,0.1c-0.1-0.1-0.5,0.1-0.7,0.1c-0.4,0.1-0.7,0-1.1,0.2c-0.3,0-0.8,0.2-1.1,0.1c-0.1,0-0.3,0-0.3,0.1
			c-0.3,0-0.5,0-1,0.1s-0.6,0-1.2,0.1c-0.4,0-0.9,0.1-1.3,0.2c-0.3,0.1-0.6,0.2-0.8,0.1c-0.5,0.2-0.7,0.1-1.2,0.2
			c-0.6,0.1-1.3,0.2-2,0.4c0,0,0-0.1-0.1,0c-0.2,0.1-0.3,0-0.6,0.1c-0.3,0-0.7,0.1-1,0.1c-0.5,0.2-0.8,0-1.3,0.2
			c-0.3,0-0.5,0.1-0.7,0.1l0,0.8v-0.1c-0.7,0.1-1.3,0.2-2,0.3c-0.7,0-1.6,0.3-2.3,0.3c-0.6,0.1-1,0.2-1.6,0.3
			c-0.3,0-0.8,0.2-1.1,0.1c-0.3,0.1-0.4,0-0.7,0.2c-0.2,0-0.5,0.2-0.7,0.1c-0.3,0.1-0.6,0.1-0.9,0.1c-0.3,0.1-0.7,0.2-0.9,0.1
			c-0.5,0.2-0.7,0-1.1,0.2c-0.4,0-0.9,0.2-1.3,0.2c-0.5,0-1.2,0.3-1.6,0.2c-0.5,0.1-2,0.2-2.4,0.3c-0.3,0-1.6,0.1-2,0.3
			C3.4,24.9,3.4,24.9,3,25c-0.2,0-0.7,0.2-0.7,0.1c-0.1,0-0.4,0.1-0.4,0c-0.3,0,0.4,0,0.3-0.1C2,25,2.1,24.8,2,24.8
			c-0.3,0,0.1-0.1,0-0.2l0.2-0.1c-0.1,0,0.5,0,0.3,0.1c-0.2,0,0.3-0.1,0.3-0.1L2,24.7c0.1,0,0.3-0.2,0.4-0.2c0.1,0,0.1-0.2,0.1-0.2
			C2.6,24.1,2.9,24,2.9,24s0,0,0-0.1H2.7c0,0,0,0-0.1-0.1c-0.1,0-0.2,0-0.3,0c0.1-0.2,0.6-0.2,0.3-0.3c0-0.1,0.5-0.1,0.3-0.2L3.4,23
			c-0.6,0,0.4-0.3,0-0.4c0,0,0.2-0.1,0.3-0.1s0.1-0.1,0.1-0.1c0.2,0,0.5-0.1,0.5-0.1l-0.2-0.1c0.1,0,0.3-0.1,0.3-0.1s0,0-0.1,0
			S4,22.2,3.8,22.2c0,0-0.3,0-0.4,0.1c-0.2,0-0.2,0-0.3,0c-0.2,0-0.3,0-0.3,0c0.1-0.1,0,0-0.1-0.1c-0.3,0.1,0-0.1-0.3-0.1
			s0.3-0.2-0.1-0.1c-0.1,0-0.2-0.1-0.3-0.2c-0.1-0.1-0.2,0-0.3-0.1c0.2-0.1,0.2-0.2,0.2-0.3c-0.2,0,0.4-0.4,0.1-0.3
			c0.1,0,0.7-0.2,0.7-0.2C2.3,21,3,20.8,2.6,20.8c-0.1,0,0.2-0.1,0-0.1c0.2-0.1-0.1,0,0-0.1c0-0.1,0-0.1,0.1-0.2H2.5H2.4
			c0.2-0.1,0-0.1-0.1-0.1L2.5,20c-0.1,0-0.7,0-0.5-0.1c-0.2,0-0.3,0,0-0.2c-0.1-0.1,0-0.3-0.3-0.3c0,0,0.4-0.2,0.1-0.2
			c0,0,0.1,0,0.1-0.1l0,0C2,19,2.1,19,2.2,19c0.1,0,0.1,0,0.1,0h0.2c0.1,0,0.1-0.1,0.1-0.1H2.5l-0.4-0.1c0,0,0.5-0.1,0.1-0.1H2.1
			l0.1-0.1c0.1-0.1-0.4,0-0.5-0.1c0.2-0.1-0.1,0-0.1-0.1l0,0c0.2-0.1,0.1-0.1,0-0.1C2,18.1,1.2,18,1.5,18c-0.1,0-0.1-0.2-0.1-0.3
			c0.1,0,0.1-0.2,0.1-0.2c0.1-0.1,0.2,0,0.1-0.1c0.1-0.1,0.2-0.1,0.3-0.2c-0.4,0,0.2-0.3,0.2-0.4L2,16.7l0.7-0.2
			c0.1-0.2,0.6-0.2,0.1-0.3H3V16c0.2-0.1,0.2-0.2,0.1-0.2c0,0,0.2-0.1,0.3,0h0.1c0.1-0.1,0.1,0,0.1-0.1v-0.1c0,0,0.2,0,0.1-0.1
			c0,0,0.1,0,0.1-0.1c-0.1,0-0.1-0.1,0-0.2c0.1-0.1-0.3-0.1,0-0.1c0.2,0.1-0.1-0.1,1-0.5c0.3-0.2,0.5,0.1,0.8-0.2
			c0.5-0.1,0.4,0.1,0.9,0c0,0,0.1,0,0.1,0.1H6.5c0.2,0,1.9-0.4,1.9-0.3c0.1,0,0.2,0,0.2-0.1c0.6-0.1,1.1-0.1,1.7-0.2
			c0.1,0,0.3-0.1,0.4,0c0.3-0.1,0.7-0.1,1-0.1c0,0.1,0.9-0.2,0.7,0c0.1,0,0.3,0,0.5-0.1l0,0c0.4-0.1,0.6,0,1.1-0.1
			c0.1-0.1,0.3-0.1,0.3-0.2c0.5-0.2,0.9-0.2,1.4-0.3c0.7-0.2,1.6-0.3,2.2-0.3c0.2-0.1,0.4-0.1,0.6-0.1c0.5-0.1,1-0.3,1.3-0.2
			c0.1-0.1,0.1,0,0.2-0.1c0,0,0.1,0,0.2,0s0.2-0.1,0.4-0.1c0.5-0.1,0.4,0.2,1,0c0.3,0.1,1.2,0.1,1.7,0c0.2-0.1,0.3,0,0.3,0
			c0.3-0.1,0.6-0.1,0.9-0.2c0,0,0-0.1,0.1-0.1c0,0,0.2,0,0.2,0.1c0.3-0.1,0.7-0.2,0.8-0.1c0.8-0.2,1.5-0.2,2.3-0.4
			c0.1,0,0.2-0.1,0.4-0.1c0.6-0.2,1-0.1,1.6-0.3c0.2,0,0.5-0.2,0.7-0.2c0.7-0.2,1.4-0.3,2.1-0.5l0,0c0.2,0,0.3,0,0.4-0.1
			c0,0,0,0,0.1,0c0.4-0.1,0.7-0.2,1.1-0.3c0.6-0.3,1.3-0.6,2-0.7c0,0,0.2,0,0.3,0c-0.1,0.1,0.5-0.1,0.4,0.1l-0.2,0.1
			c0.1,0.1,0.4,0,0.3,0.1c0.2,0,0.3,0,0.3,0.1c0.3,0,0.6-0.1,0.9-0.2c0.2-0.1,0.7,0,0.9-0.1c0.3,0,0,0.1,0.2,0.1
			c0.4-0.1,0.1,0.1,0.4,0.1c0.2,0,0.1-0.1,0.3-0.1c0,0,0,0.1,0.1,0c0.1,0,0.2-0.1,0.2,0s0.3-0.1,0.3,0c0.2,0-0.1,0.1,0.3,0
			c0.3,0.1,0.3-0.1,0.4-0.1h0.1c0-0.1,0.1,0.1,0.1,0.1s0,0,0.1,0h0.1c0.1,0,0,0.1,0,0.1c0.1,0,0.1,0,0.3,0v0.1h0.1
			c0,0,0.1,0.1,0.1,0c0,0-0.1,0.1,0.1,0c0,0,0,0.1-0.1,0.1l0.2,0.1l-0.1,0.1c0,0-0.1,0.1-0.2,0.1c0,0,0.1,0.1,0,0.1
			s-0.1,0.1-0.1,0.1l-0.1,0h0.2L42,10.6h0.1h0.1c-0.1,0-0.4,0.2-0.2,0.2h-0.1c0.1,0-0.2,0.2-0.2,0.2c-0.1,0-0.3,0.3-0.2,0.3
			c0.2,0-0.4,0.3,0,0.3h-0.1c0.1,0,0.1,0.1,0.1,0.1C41.3,11.8,41.6,11.8,41.4,11.9"/>
		<path class="st1" d="M45.9,21L45.9,21c-0.2,0.1,0,0.1-0.1,0.2c-0.3,0.2-0.7,0.2-1.1,0.3c-0.3,0-0.4,0.2-0.7,0.2
			c0,0.1-0.5,0.2-0.7,0.3c-0.2,0-0.6,0.2-0.8,0.2c-0.4,0.2-0.9,0.1-1.2,0.4h0.1l-0.2,0.1c0.1,0,0.1,0.1,0.2,0.2
			c-0.1,0-0.2,0.1-0.3,0.1c0.3-0.1,0.3,0,0.3,0.1c-0.1,0.1-0.7,0.3-1,0.4c-0.1,0-0.1,0.1-0.2,0.1c-0.3,0-0.3,0.1-0.5,0.2
			c-0.4,0.1-1.1,0.2-1.1,0.4c0,0,0,0.1,0.2,0.1l0,0c0.2,0-0.3,0.2,0,0.1c0.1,0,0.5,0,0.2,0.1c0,0,0.2,0.1,0,0.1
			c0.3-0.1,0.2,0,0.3,0.1c0,0.1,0,0.1,0,0.2C39.2,25,39,25,39.1,25h0.1L39,25c0.4-0.1,0.4,0.1,0.8,0c-0.2,0.1,0.2,0,0.2,0.1
			c-0.1,0.1,0.3,0,0.1,0.1c0.3,0,0.2,0.1,0.2,0.1c0.3-0.1-0.1,0.1,0,0.2c0.1,0,0.1,0.1,0.1,0.1h0.2h-0.1h0.2c-0.1,0-0.2,0.1-0.1,0.1
			c0,0,0,0-0.1,0c0,0.1,0.3,0,0.1,0.1c0.2,0-0.1,0.1,0.1,0.1L40.5,26h0.4c-0.5,0.1,0,0.1-0.2,0.3c-0.1,0-0.1,0.1-0.2,0.1h0.1h-0.1
			c0.2,0,0,0.1,0.2,0c-0.4,0.2,0.3,0.1-0.1,0.2c-0.1,0.1,0,0.1,0,0.1c0.1,0,0.1,0,0,0.1l0,0c0,0.1-0.2,0.3,0.1,0.3
			c0.1,0,0.1,0.1,0,0.1c-0.3,0.1,0.2,0.1,0,0.2c0.1,0,0.3,0,0.3,0c-0.1,0.1-0.1,0.1-0.2,0.2c0.5,0-0.4,0.2,0.1,0.2
			c0,0.1-0.3,0.1-0.2,0.1s0.3-0.1,0.3,0c-0.1,0-0.2,0.1-0.3,0.1c0.2,0-0.1,0.1,0,0.1c-0.3,0.1-0.3,0.2-0.6,0.3
			c-0.3,0.2-0.7,0.1-1,0.2c-0.1,0-0.2,0-0.3,0c-0.4,0.1-0.8,0.3-1.1,0.4c-0.4,0-1,0.3-1.4,0.4c-0.2,0-0.3,0.1-0.5,0.2
			c-0.4,0.1-0.6,0.1-1,0.2h-0.6l0,0c-0.1,0-0.3,0-0.2-0.1c-0.2,0.1-0.3,0-0.5,0l0,0c-0.3,0-0.7-0.1-1.2-0.1c0,0-0.2,0-0.1-0.1
			c-0.6,0.2-0.5-0.1-1,0.1c-0.1,0-0.3,0-0.3,0c-0.2,0-0.6,0.1-0.6,0.1c-0.7,0.1-0.9,0-1.7,0.2c-0.1-0.1-0.4,0-0.7,0
			C27.4,30,27,30,26.5,30.2h-0.1c-0.5,0.2-0.8,0.1-1.4,0.2c-0.4,0-1.1,0.1-1.7,0.3c-0.3,0-1,0.2-1.2,0.2c-1.2,0.3-2.2,0.3-3.4,0.5
			c-1,0.3-2.1,0.4-3,0.5c-0.4,0.1-0.9,0.3-1.2,0.3c-0.2,0.1-0.4,0.1-0.6,0.1c-0.4,0.1-0.8,0.2-1.1,0.2c-0.2,0-0.1,0.1-0.2,0.1
			c-0.2,0-0.4,0.1-0.5,0.1c-0.3,0.1-0.9,0.3-1.1,0.2c-0.4,0.2-0.9,0.2-1.2,0.4c-0.5,0-1.1,0.3-1.6,0.3c-0.2-0.1-0.7,0-0.6-0.1
			c-0.3,0,0.1-0.1-0.2-0.1c-0.4,0-0.5-0.2-1-0.1c0-0.1-0.3-0.1-0.3-0.1C6,33.1,6,33,5.8,33c0.3-0.2-0.4,0-0.4-0.1h0.1
			c-0.2,0-0.5,0-0.7,0h0.1c-0.2,0-0.5,0-0.5-0.1c-0.3,0-0.3-0.1-0.5-0.1c0-0.1-0.1-0.1-0.4-0.1c-0.1-0.1-0.1-0.2-0.4-0.2
			c-0.3-0.1-0.4-0.2-0.4-0.3l0,0C2.9,32,2.8,32,2.9,31.9H2.7h0.1H2.7c0,0,0.1-0.1,0-0.1s-0.1,0-0.1,0c0.1-0.1-0.1-0.1,0.1-0.1
			c-0.2,0,0.3-0.2,0.1-0.2s-0.2,0-0.1-0.1c0.4-0.1,0.2-0.2,0.2-0.3c0.2-0.2-0.3,0-0.4-0.1l0.4-0.3c0.1-0.2-0.3-0.1-0.5-0.2l0,0
			c-0.2,0,0-0.1-0.1-0.1l0.1-0.1c-0.2,0-0.2,0-0.1-0.1C2.4,30.1,2.7,30,2.7,30c0.3-0.1,0-0.1,0.2-0.2c-0.1,0,0.3-0.2,0-0.2l0.1,0
			H2.9c0.2-0.1-0.2,0,0-0.2c-0.2,0,0.3-0.2-0.1-0.1c0.1-0.1-0.2,0,0-0.1c-0.5,0,0.3-0.3-0.1-0.3c0.1-0.1-0.2,0-0.3,0l0,0
			c0.1-0.1,0.2-0.1,0.1-0.1c0,0,0-0.1-0.1,0v-0.1c0.2,0,0.1-0.1,0.2-0.1H2.5c0.3-0.1,0-0.1,0.3-0.2c-0.3-0.1,0.6-0.3,0.4-0.4
			c0.2-0.1,0.1-0.2,0-0.3l0,0c0.2-0.2-0.6-0.1-0.4-0.3c-0.3,0,0.2-0.2-0.1-0.1L2.6,27l1-0.5c0-0.1-0.5,0-0.7,0
			c-0.6,0.1-1.3,0.3-1.5,0.2c-0.2,0-0.3,0-0.3,0l0.1-0.1c0,0,0,0-0.1,0c0.1-0.1,0.3-0.1,0.2-0.2H1.2c0.3-0.1,0.2-0.2,0.3-0.3H1.4
			c0.2-0.1,0-0.1,0-0.2c0.2-0.1,0.2-0.2,0.5-0.3H1.8h0.1H1.8c0,0,0.1,0,0.2-0.1c-0.2,0,0-0.1-0.3,0l0.1-0.1c-0.1,0-0.1,0,0,0h0.1
			c-0.1,0-0.3,0-0.1,0c-0.5,0.1-0.1-0.1-0.4-0.1c0-0.1-0.3-0.1,0-0.2c-0.2,0,0.2-0.1,0.3-0.2c0.2-0.2,0.6-0.2,1-0.3
			c0.5,0,1.2-0.1,1.6,0c0.1,0,0.3-0.1,0.3,0c0.4-0.1,0.9,0,1.3-0.2c0.2,0,0.2,0,0.4,0c1.5-0.2,2.8-0.1,4.6-0.5
			c0.4,0,1.1-0.2,1.5-0.2c0.8-0.2,1.4-0.1,2.2-0.3c0.3,0,0.6-0.1,0.9-0.2c0.1,0,0.3-0.1,0.5,0c0.8-0.2,1.6-0.2,2.5-0.4
			c1.3-0.2,2.8-0.4,4.2-0.7c0.2,0,0.4-0.1,0.6-0.1c0.3-0.1,0.7-0.1,0.8-0.1c0.4-0.2,0.9-0.2,1.3-0.2c0.2-0.1,0.3,0,0.5-0.1
			c0.4-0.1,0.8-0.2,1-0.2c0.3-0.1,0.4,0,0.7-0.1c0.4,0,0.9-0.2,1.4-0.2c0.1,0,0.2,0,0.3,0c0.6,0,1.4-0.3,2-0.4
			c0.3,0,0.6-0.1,0.8-0.1l0.2-0.1c0.1,0,0.3,0,0.5,0l0.7-0.1c0.3-0.1,0.7-0.1,0.9-0.2c0.1,0,0.2,0,0.4-0.1c0.2,0,0.6-0.1,0.7-0.1
			c0.4-0.2,0.7-0.1,1.1-0.2c0.1,0,0.2,0,0.4,0s0.1-0.1,0.3-0.1c0,0.1,0.3,0,0.5-0.1s0.6,0,0.8-0.2c0.5-0.2,0.4,0,0.9-0.1
			c0.2-0.1,0.4-0.1,0.5-0.1c0.1,0.1,0.3-0.1,0.5-0.1c0.3,0,0.8-0.3,0.9-0.1c0.3-0.1,0.4,0,0.5,0.1c0.2,0,0.3,0,0.5,0
			s0.1,0.1,0.2,0.1c-0.2,0.1,0.2,0,0.1,0.1h0.2c-0.1,0.1,0,0.1-0.1,0.1h0.1c-0.1,0.1,0.2,0,0.3,0l-0.3,0.2c0.3-0.1,0.1,0.1,0.4,0.1
			l-0.1,0.1h0.1l0,0c-0.2,0.1,0.5-0.1,0.3,0.1h0.1c-0.3,0.1,0.1,0,0.1,0.1c0.3,0,0.3,0.1,0.5,0.1c-0.2,0.2,0.4,0.1,0.3,0.3
			c0.1,0,0.2,0,0,0.1H45h-0.1H45h0.1c0,0.1,0.1,0.1,0.2,0.1h0.1c0.2,0-0.2,0.2,0.1,0.1c-0.2,0.1,0.1,0.1,0,0.1h0.1l0,0l0,0
			c0.4,0-0.4,0.2,0.1,0.1c0.2,0.1-0.1,0.2,0.1,0.3c-0.1,0.1,0.4,0,0.2,0.1c0,0-0.2,0.2,0,0.1c-0.5,0.1,0,0.1-0.2,0.3
			C45.8,20.9,45.8,21,45.9,21L45.9,21"/>
		<path class="st1" d="M44.4,2c0.1,0-0.2,0.1-0.4,0.2c-0.4,0.1-0.6,0.1-1,0.3c-0.1,0-0.3,0-0.4,0.1v0.1c-0.3,0.1-0.5,0.1-0.7,0.2
			c-0.6,0.1-1,0.4-1.4,0.6c0.1,0,0.2,0.1,0.1,0.1c0.1,0.1,0.5,0,0.3,0.2c0.6-0.1,0,0.2,0.6,0.1C41.4,4,41.8,4,42,4h-0.1
			c0.3,0,0,0.2,0.3,0.1c-0.1,0.1,0.1,0,0.2,0c-0.1,0.1,0.2,0.1,0.1,0.2c0.1,0,0.2,0.1,0.4,0.1c-0.2,0.1,0.2,0,0.1,0.2
			c0.2,0-0.1,0.1-0.1,0.2c-0.3,0.2-0.6,0.3-1,0.3c-0.1,0-0.3,0.1-0.4,0.1c0,0.1-0.3,0.1-0.2,0.2c-0.1,0-0.1,0-0.2,0.1
			c0,0.1,0,0.1-0.2,0.2s-0.1,0.1-0.1,0.2c0.2,0,0.1,0.1,0.3,0C41,6,41.2,5.9,41,6c0.3,0-0.2,0.1,0.1,0.1c-0.1,0.1,0,0.1,0.2,0.1
			c0,0.1,0,0.2,0.2,0.2c-0.1,0.1,0.1,0.1,0.1,0.2c0.2,0,0.5,0,0.6,0C42.4,7,42.8,7,42.9,7.1c-0.1,0.2-0.6,0.4-1,0.6
			c-0.2,0-0.5,0.1-0.7,0.1c-0.6,0.1-1,0.2-1.5,0.4c-0.4,0.1-0.6,0.3-1.1,0.4c-0.2,0.1-0.1,0.1-0.2,0.3C38.7,8.8,38.6,9,39,8.8
			C39.4,8.7,39,9,39.3,9h-0.1c0.1,0,0,0.1,0.1,0.1s0.1,0,0.1,0c-0.2,0.1-0.1,0-0.2,0.1c0.3-0.1,0,0.1,0.2,0.1c0.1,0,0.1,0.1,0.1,0.1
			h-0.1h0.1l-0.2,0.1h0.2c-0.2,0-0.1,0.1-0.2,0.1c0,0,0.2-0.1,0.2,0h-0.1c0.1,0,0.1,0,0.1,0c-0.2,0.1-0.2,0.2-0.2,0.2
			c-0.3,0.2-0.7,0.2-1,0.4c-0.3,0.1-0.5,0.1-0.9,0.2c-0.1,0-0.3,0-0.4,0c-0.4,0.1-0.4-0.1-0.8,0c-0.1-0.1-0.5,0.1-0.7,0.1
			c-0.4,0.1-0.7,0-1.1,0.2c-0.3,0-0.8,0.2-1.1,0.1c-0.1,0-0.3,0-0.3,0.1c-0.3,0-0.5,0-1,0.1s-0.6,0-1.2,0.1c-0.4,0-0.9,0.1-1.3,0.2
			c-0.3,0.1-0.6,0.2-0.8,0.1c-0.5,0.2-0.7,0.1-1.2,0.2c-0.6,0.1-1.3,0.1-2,0.4c0,0,0-0.1-0.1,0c-0.2,0.1-0.3,0-0.6,0.1
			c-0.3,0-0.7,0.1-1,0.1c-0.5,0.2-0.8,0-1.3,0.2c-0.3,0-0.5,0.1-0.7,0.1l-0.3,0.1v-0.1c-0.7,0.1-1.3,0.2-2,0.3
			c-0.7,0-1.6,0.3-2.3,0.3c-0.6,0.1-1,0.2-1.6,0.3c-0.3,0-0.8,0.2-1.1,0.1c-0.3,0.1-0.4,0-0.7,0.2c-0.2,0-0.5,0.1-0.7,0.1
			C13,14,12.7,14,12.4,14s-0.7,0.2-0.9,0.1c-0.5,0.2-0.7,0-1.1,0.1c-0.4,0-0.9,0.2-1.3,0.2c-0.5,0-1.2,0.3-1.6,0.2
			c-0.5,0.1-0.9,0.1-1.4,0.2c-0.2,0-0.4-0.1-0.8,0C4.8,15,4.5,14.9,4.1,15c-0.2,0-0.7,0.2-0.7,0.1c-0.1,0-0.4,0.1-0.4,0
			c-0.3,0-0.8,0.2-0.8,0.1C1.9,15.4,2,15.3,2,15.3c-0.3,0,0.1-0.1,0-0.2L2.2,15c-0.1,0,0-0.1-0.2,0c-0.2,0,0.1,0,0.1-0.1H2
			c0.1,0-0.1,0-0.1,0c0-0.1,0.3-0.2,0.3-0.3c0.1-0.1,0.4-0.1,0.4-0.2c0.1-0.1-0.4,0-0.1-0.2c-0.2,0,0.4-0.2,0.1-0.2
			c0.1-0.2,0.2-0.3-0.1-0.4c0-0.1,0.1-0.1,0-0.1l0.1-0.2C2,13.3,2.5,13,2.1,13c0-0.1-0.1-0.1,0.1-0.2H1.9c0.1,0,0.2-0.1,0.2-0.2
			c0.3-0.1,0.8-0.2,0.8-0.3C3,12.1,3.4,12.1,3.3,12c-0.3,0.1-0.4,0-0.7,0c-0.6,0.1-0.9,0.1-1.5,0.2c-0.4,0-0.5-0.1-0.7-0.2
			c0.2-0.1,0.1-0.1,0.2-0.2c-0.4,0.1-0.1-0.1-0.3-0.1c0.1,0,0.2-0.1,0.1-0.1c-0.5,0.1,0.1-0.2-0.2-0.2c-0.1,0,0.2-0.1,0-0.1
			c0.2-0.1-0.1-0.1,0-0.2c0-0.1-0.1-0.1-0.1-0.2l0.2-0.1H0.2c0.2-0.1,0.1-0.1,0-0.1l0.3-0.1c-0.1,0-0.1-0.1,0.1-0.1
			c-0.2,0-0.5,0-0.3-0.1c0-0.3,0.2-0.4-0.1-0.4c-0.2,0,0.4-0.3,0-0.3c0.1-0.1,0.1-0.1,0-0.1l0,0h0.1H0.2l0.2-0.1H0.3l0.2-0.1
			c-0.2,0,0-0.2-0.3-0.1l0.1-0.1L0,9.2C0.1,9.1,0.1,9,0,9c0.2-0.1,0.1-0.1,0.2-0.2H0.1c0.2-0.1,0.1-0.1,0-0.1
			c0.3-0.1,0.4-0.3,0.8-0.4C0.8,8.2,1.2,8.1,1.2,8.1C1.3,8,1.4,8,1.4,8C1.2,8,1.1,8,1.1,8C1.2,7.8,0.9,7.9,1,7.8c-0.4,0,0-0.3,0-0.4
			l0.3-0.2l0,0c0.1-0.2,1.4-0.5,1-0.7l0,0l0,0c0.2-0.1-0.1-0.1-0.1-0.1c-0.2,0-0.1-0.1-0.3,0H1.8c0.1-0.1-0.1-0.1-0.2-0.1
			c0.1,0,0-0.1-0.2,0c0,0,0,0-0.1,0c0,0,0.1,0,0.1-0.1C1.1,6.2,1.1,6.1,1.2,6C1.4,5.9,1.7,5.7,2,5.7c0.2,0.1,0.5-0.2,0.7-0.2
			c0.1,0,0.1-0.1,0.2-0.1C3,5.4,3,5.5,3.2,5.5c0.4-0.1,0.1,0.1,0.5,0c0.2,0,0.3,0.1,0.7-0.1c0.3-0.1,0.5-0.1,0.7-0.2
			C5.4,5,5.6,5.3,5.9,5c0.5,0,0.5,0.2,0.9,0.1h0.1H6.8c0.2,0,0.8-0.1,0.8,0c0.1,0,0.2,0,0.2-0.1C8.5,5,9,5.1,9.6,4.9
			c0.1,0,0.3-0.1,0.4,0c0.3,0,0.7-0.1,1-0.1c0,0.1,0.9-0.2,0.7,0c0.1,0,0.3,0,0.5-0.1l0,0c0.4-0.1,0.6,0,1.1-0.1
			c0.1-0.1,0.3-0.1,0.3-0.2c0.5-0.2,0.9-0.2,1.4-0.3c0.7-0.1,1.6-0.3,2.2-0.3c0.2-0.1,0.4-0.1,0.6-0.1c0.5-0.1,1-0.3,1.3-0.2
			c0.1-0.1,0.1,0,0.2-0.1c0,0,0.1,0,0.2,0s0.2-0.1,0.4-0.1c0.5-0.1,0.4,0.2,1,0c0.3,0.1,1.2-0.2,1.7-0.3c0.2-0.1,0.3,0,0.3,0
			c0.3-0.1,0.6,0,0.9-0.2c0,0,0-0.1,0.1-0.1c0,0,0.2,0,0.2,0.1c0.3-0.1,0.7-0.2,0.8-0.1c0.8-0.2,1.5-0.2,2.3-0.4
			c0.1,0,0.2-0.1,0.4-0.1c0.6-0.2,1-0.1,1.6-0.3c0.2,0,0.5-0.2,0.7-0.2c0.7-0.2,1.4-0.3,2.1-0.5V1.1c0.2,0,0.3,0,0.4-0.1
			c0,0,0,0,0.1,0c0.4-0.1,0.7-0.2,1.1-0.3c0.6-0.3,1.3-0.6,2-0.7c0,0,0.2,0,0.3,0c-0.1,0.1,0.5-0.1,0.3,0.1L36,0.2
			c0.1,0.1,0.4,0,0.3,0.1c0.2,0,0.3,0,0.3,0.2c0.3,0,0.6-0.1,0.9-0.2c0.2-0.1,0.4-0.1,0.6-0.2c0.3,0,0.7-0.1,0.8-0.1
			c0.4-0.1,0,0.1,0.3,0.1c0.2,0,0.4,0.1,0.6,0.1c-0.1,0.1,0.1,0,0.2,0c0,0,0.2,0.1,0.2,0.2c0.3,0,0,0.2,0.3,0.1
			c-0.2,0.1,0.3,0,0,0.1C40.9,1,41.4,1,41.8,1c-0.2,0.1,0.1,0,0,0.1c0.1,0,0.5-0.1,0.4,0.1c0.3-0.1,0.7-0.1,0.8,0h-0.1h0.2L43,1.3
			h0.1L43,1.4c0.4-0.1,0,0.1,0.3,0.1h-0.1c0.2,0,0,0.1,0.2,0c0.1,0,0.3,0,0.1,0.1c0.4-0.1,0.3,0.1,0.8,0h-0.1c0.1,0,0.2,0,0.3,0
			C44.3,1.9,44.5,1.9,44.4,2"/>
	</g>
</g>
<g>
	<path class="st0" d="M61.9,7h2.4l6.3,16.1h-2.4l-1.8-4.9h-6.8l-1.8,4.9h-2.2L61.9,7z M60.3,16.5h5.5L63.1,9l0,0L60.3,16.5z"/>
	<path class="st0" d="M89.6,23.2h-1.8v-1.9l0,0c-0.8,1.4-2.1,2.1-3.8,2.1c-3.1,0-4-1.8-4-4.3v-7.6h1.9v7.9c0,1.4,0.9,2.4,2.4,2.4
		c2.3,0,3.5-1.6,3.5-3.7v-6.6h1.9L89.6,23.2L89.6,23.2z"/>
	<path class="st0" d="M101.9,19.5c0.1,1.7,1.6,2.3,3.1,2.3c1.2,0,2.8-0.3,2.8-1.7c0-3-7.6-1-7.6-5.5c0-2.4,2.3-3.3,4.4-3.3
		c2.6,0,4.6,0.8,4.8,3.7h-1.9c-0.1-1.5-1.5-2-2.7-2s-2.5,0.3-2.5,1.5c0,1.4,2,1.6,3.8,2c1.9,0.4,3.8,1.1,3.8,3.3
		c0,2.8-2.6,3.7-5,3.7c-2.6,0-4.8-1.1-5-4C99.9,19.5,101.9,19.5,101.9,19.5z"/>
	<path class="st0" d="M123,11.5h2.3v1.7H123v7.3c0,0.9,0.2,1,1.4,1h0.9v1.7h-1.5c-2,0-2.8-0.4-2.8-2.6v-7.4h-2v-1.7h2V8h1.9
		L123,11.5L123,11.5z"/>
	<path class="st0" d="M135.5,11.5h1.8V14l0,0c0.9-1.9,2.2-2.8,4.3-2.7v2c-3.1,0-4.2,1.7-4.2,4.7v5.2h-1.9L135.5,11.5L135.5,11.5z"/>
	<path class="st0" d="M153.5,9.4h-1.9V7h1.9V9.4z M151.5,11.5h1.9v11.7h-1.9V11.5z"/>
	<path class="st0" d="M175,23.1c-0.3,0.2-0.8,0.3-1.4,0.3c-1,0-1.6-0.5-1.6-1.8c-1.1,1.3-2.5,1.8-4.1,1.8c-2.1,0-3.9-0.9-3.9-3.3
		c0-2.6,2-3.2,4-3.6c2.1-0.4,3.9-0.2,3.9-1.7c0-1.7-1.4-1.9-2.6-1.9c-1.6,0-2.8,0.5-2.9,2.2h-1.9c0.1-2.9,2.3-3.9,5-3.9
		c2.1,0,4.4,0.5,4.4,3.2v6c0,0.9,0,1.3,0.6,1.3c0.2,0,0.4,0,0.6-0.1v1.5H175z M171.9,17.1c-1.5,1.1-5.8,0-5.8,2.9
		c0,1.3,1.1,1.7,2.3,1.7c2.5,0,3.6-1.6,3.6-2.6v-2H171.9z"/>
</g>
</svg>
